<?xml version="1.0" encoding="utf-8"?><svg version="1.1" id="Layer_1" xmlns="http://www.w3.org/2000/svg" xmlns:xlink="http://www.w3.org/1999/xlink" x="0px" y="0px" viewBox="0 0 99.28 122.88" style="enable-background:new 0 0 99.28 122.88" xml:space="preserve"><style type="text/css">.st0{fill-rule:evenodd;clip-rule:evenodd;stroke:white;r:3}</style><g><path class="st0" d="M49.8,120.05c2.9,0.68,5.99,1.06,9.2,1.27c2.68,0.17,5.24,0.36,7.92,0.61c12.4,1.14,23.6,1.38,28.64-2.9 c1.32-0.91,2.12-2.09,2.51-3.47c0.51-1.79,1.6-3.91,1.06-6.22c-1.78-11.2-6.17-14.01-13.17-22.73c-2.31-2.88-4.53-5.93-6.39-9.65 c-3.05-6.1-2.46-9.57-4.28-15.49c-0.21-0.69-0.44-1.37-0.69-2.04c-1.78-4.85-2.17-6.37-7.17-8.19c-3.16-1.15-7.24-1.22-9.58-3.51 c-2-1.95-2.58-4.61-2.61-7.55c2.99-2.36,5.48-7.18,6.8-10.46c0.01-0.02,0.03-0.05,0.04-0.07l0,0c0.83-1.91,1.01-3.22,0.59-4.08 c-0.08-0.17-0.18-0.31-0.3-0.44c0.43-0.85,0.69-1.55,0.75-1.96c0.26-0.74,0.38-1.46,0.39-2.18c0.04-3.09-1.83-8.1-3.94-10.38 c-0.65-0.7-1.36-1.29-2.13-1.79c-5.19-3.37-14.53-3.03-19.24,0.88c-3.12,2.6-4.13,5.59-4.27,9.33c-0.09,2.2-0.13,3.91,0.9,6.07 c-0.14,0.17-0.25,0.35-0.34,0.55c-0.18,0.4-0.27,0.86-0.25,1.37c0.03,1.1,0.54,2.45,1.52,3.94c1.25,3.09,3.46,6.97,6.06,9.12 c-0.06,3.75-1.01,6.83-3.59,8.69c-3.44,2.47-7.6,1.28-11.77,4.51c-3.38,2.62-4.03,6.85-5.21,10.71l-4.36,14.35 c-2.94,8.45-14.1,18.54-16.49,30.62c-0.86,1.41-0.06,2.86-0.05,4.34c0.04,3.51,1.95,5.18,4.84,6.72 c7.58,4.03,18.97,3.12,30.94,1.47c1.75,0.16,3.59,0.1,5.5-0.13c1.59-0.2,3.22-0.51,4.88-0.93 C48.02,120.04,48.28,119.69,49.8,120.05L49.8,120.05z M29.16,72l1.28-4.44c0.02,6.11,1.59,8.96,2.66,12.59 c0.4,1.35,0.73,2.8,0.89,4.56c0.47,5.24-0.32,9.47-1.91,14.44c-1.08,3.37-2.15,6.31-1.7,7.47c-7.16-2.38-13.95-2.96-20.48-2.32 C20.5,93.3,25.07,86.21,29.16,72L29.16,72z M68.34,72l-1.28-4.44c-0.02,6.11-1.59,8.96-2.66,12.59c-0.4,1.35-0.73,2.8-0.89,4.56 c-0.47,5.24,0.32,9.47,1.91,14.44c1.08,3.37,1.82,6.9,1.37,8.06c7.16-2.38,16.78-3.29,23.31-2.65C80.43,93.56,72.92,86.21,68.34,72 L68.34,72z M44.19,1.27c3.1-1.98,6.62-1.54,9.53,0.56c0.77,0.55,1.42,1.23,1.94,2.05c0.44,0.7,1.21,2.13-0.23,2.35 c-0.57,0.09-1.56-0.64-2.33-0.88c-0.99-0.3-2-0.49-3-0.59c-1.88-0.19-3.72-0.04-5.31,0.37c-0.86,0.22-1.7,0.5-2.5,0.85 c-0.37,0.16-1.13,0.64-1.34,0.03C40.46,4.59,43.08,1.99,44.19,1.27L44.19,1.27z"/></g></svg>